<?xml version="1.0" standalone="no"?><!DOCTYPE svg PUBLIC "-//W3C//DTD SVG 1.1//EN" "http://www.w3.org/Graphics/SVG/1.1/DTD/svg11.dtd"><svg t="1737616937940" class="icon" viewBox="0 0 1024 1024" version="1.1" xmlns="http://www.w3.org/2000/svg" p-id="50717" xmlns:xlink="http://www.w3.org/1999/xlink" width="200" height="200"><path d="M811.4 871H211.7c-81.6 0-148-66.4-148-148V424.8c0-81.6 66.4-148 148-148h28.8c7.9 0 15.3-4.3 19.2-11.2l41.1-73.2c13.8-24.5 39.8-39.8 68-39.8h285.4c28.2 0 54.2 15.2 68 39.8l41.1 73.2c3.9 6.9 11.2 11.2 19.2 11.2h28.8c81.6 0 148 66.4 148 148V723c0.1 81.6-66.3 148-147.9 148zM211.7 332.8c-24.4 0-47.5 9.6-65 27-17.4 17.4-27 40.5-27 65V723c0 24.4 9.6 47.5 27 65 17.4 17.4 40.5 27 65 27h599.7c24.4 0 47.5-9.6 65-27 17.4-17.4 27-40.5 27-65V424.8c0-24.4-9.6-47.5-27-65-17.4-17.4-40.5-27-65-27h-28.8c-28.2 0-54.2-15.2-68-39.8l-41.1-73.2c-3.9-6.9-11.2-11.2-19.2-11.2H368.8c-7.9 0-15.3 4.3-19.2 11.2L308.5 293c-13.8 24.5-39.8 39.8-68 39.8h-28.8z" fill="#000000" p-id="50718"></path><path d="M511.5 756.5C399.8 756.5 309 665.7 309 554s90.9-202.6 202.6-202.6S714.1 442.3 714.1 554s-90.9 202.5-202.6 202.5z m0-349.1C430.7 407.4 365 473.2 365 554s65.7 146.6 146.6 146.6S658.1 634.8 658.1 554s-65.8-146.6-146.6-146.6z" fill="#000000" p-id="50719"></path></svg>