<?xml version="1.0" encoding="UTF-8"?>
<svg width="28px" height="28px" viewBox="0 0 28 28" version="1.1" xmlns="http://www.w3.org/2000/svg" xmlns:xlink="http://www.w3.org/1999/xlink">
    <title>编组</title>
    <g id="页面-1" stroke="none" stroke-width="1" fill="none" fill-rule="evenodd">
        <g id="编组" fill="#000000">
            <path d="M13.8854167,0 C6.21671417,0 0,6.21671417 0,13.8854167 C0,21.5541708 6.21671417,27.7708333 13.8854167,27.7708333 C21.5541708,27.7708333 27.7708333,21.5541708 27.7708333,13.8854167 C27.7708333,6.21671417 21.5541708,0 13.8854167,0 Z M14.8541667,6.13541667 C14.8541667,5.60039542 14.420425,5.16666667 13.8854167,5.16666667 C13.3504083,5.16666667 12.9166667,5.60039542 12.9166667,6.13541667 L12.9166667,13.8854167 C12.9166667,14.420425 13.3504083,14.8541667 13.8854167,14.8541667 L21.6354167,14.8541667 C22.170425,14.8541667 22.6041667,14.420425 22.6041667,13.8854167 C22.6041667,13.3504083 22.170425,12.9166667 21.6354167,12.9166667 L14.8541667,12.9166667 L14.8541667,6.13541667 Z" id="形状"></path>
        </g>
    </g>
</svg>