<?xml version="1.0" standalone="no"?><!DOCTYPE svg PUBLIC "-//W3C//DTD SVG 1.1//EN" "http://www.w3.org/Graphics/SVG/1.1/DTD/svg11.dtd"><svg t="1739498584660" class="icon" viewBox="0 0 1024 1024" version="1.1" xmlns="http://www.w3.org/2000/svg" p-id="4994" xmlns:xlink="http://www.w3.org/1999/xlink" width="200" height="200"><path d="M512 64C213.3 64 64 213.3 64 512s149.3 448 448 448 448-149.3 448-448S810.7 64 512 64z m201.8 567.5c22.5 22.5 22.5 59 0 81.5s-59 22.5-81.5 0L520.2 600.9 408.1 713c-22.5 22.5-59 22.5-81.5 0s-22.5-59 0-81.5l112.1-112.1-112.2-112.1c-22.5-22.5-22.5-59.1 0-81.6 22.5-22.5 59-22.5 81.5 0l112.1 112.1 112.1-112.1c22.5-22.5 59-22.5 81.5 0s22.5 59 0 81.6l-112 112.1 112.1 112.1z" fill="#040000" p-id="4995"></path></svg>