<?xml version="1.0" encoding="UTF-8"?>
<svg width="171px" height="154px" viewBox="0 0 171 154" version="1.1" xmlns="http://www.w3.org/2000/svg" xmlns:xlink="http://www.w3.org/1999/xlink">
    <title>编组</title>
    <g id="页面-1" stroke="none" stroke-width="1" fill="none" fill-rule="evenodd">
        <g id="编组" fill-rule="nonzero">
            <path d="M157.14357,7.10542736e-15 L58.3406383,7.10542736e-15 C26.2533109,7.10542736e-15 0,26.2533109 0,58.3406383 L0,72.291867 C0,40.2043021 26.2533109,13.9512287 58.3406383,13.9512287 L157.14357,13.9512287 C164.523869,13.9512287 170.562187,19.9893098 170.562187,27.3696088 L170.562187,13.4193303 C170.562187,6.03831855 164.523869,7.10542736e-15 157.14357,7.10542736e-15 Z" id="路径" fill="#8B5CDC"></path>
            <path d="M157.14357,21.3415053 L58.3406383,21.3415053 C26.2533109,21.3415053 0,47.593866 0,79.6811934 L0,140.365843 C0,147.746142 6.03831855,153.785411 13.4193303,153.785411 L112.221549,153.785411 C144.308877,153.785411 170.562187,127.5321 170.562187,95.4445354 L170.562187,34.7598854 C170.562187,27.3798238 164.523869,21.3415053 157.14357,21.3415053 Z" id="路径" fill="#000000"></path>
            <path d="M47.726425,129.742365 C44.917507,132.545819 40.7991543,134.869638 35.3716043,136.715248 C28.3875564,139.090855 22.134008,138.88489 16.6116713,136.099015 C11.0893346,133.313378 7.14440117,128.437682 4.7761584,121.473352 C2.28557168,114.15078 2.53809883,107.380299 5.53350195,101.16286 C8.52890508,94.9463707 13.6485764,90.6061361 20.8913279,88.1433441 C25.4218486,86.6030004 29.4128687,85.9024338 32.8660514,86.0414068 L36.1130314,95.5894475 C32.3564836,94.8192756 28.4916082,95.1095748 24.5207807,96.4598699 C19.9912104,98.0002137 16.8613477,100.678473 15.1314305,104.494174 C13.4017508,108.311062 13.3302451,112.553659 14.918101,117.223153 C16.4658092,121.773153 18.9974937,124.996852 22.515293,126.894487 C26.0323795,128.793073 29.9865777,128.996425 34.3767,127.503355 C38.5071684,126.098421 41.928518,123.822114 44.6428869,120.672534 L47.726425,129.742365 L47.726425,129.742365 Z M83.70666,119.378066 L56.4985924,128.629868 L40.7314494,82.2646664 L50.6096996,78.9062703 L63.6273148,117.188944 L80.9580824,111.29625 L83.70666,119.378066 L83.70666,119.378066 Z M119.401109,84.9994654 C124.104099,98.8281129 120.029457,107.927639 107.178848,112.297569 C94.7662996,116.518072 86.2706529,111.893953 81.6902445,98.4242596 L72.5192127,71.4556533 L82.427158,68.086092 L91.6186201,95.1152762 C94.2448539,102.8379 98.5998172,105.663447 104.686361,103.594056 C110.672653,101.559111 112.40067,96.8200119 109.869936,89.3767594 L100.536412,61.9282803 L110.413712,58.5698844 L119.401109,84.9994654 Z M136.357006,101.473589 L120.590813,55.1086246 L137.053059,49.5109813 C142.102175,47.7941299 146.318878,47.4285238 149.704118,48.4151135 C153.089359,49.4005154 155.359251,51.5905877 156.512609,54.9822422 C157.367352,57.4961098 157.269002,59.9904975 156.217558,62.462792 C155.166114,64.9348488 153.475395,66.9678936 151.145162,68.5621637 L151.186022,68.6809439 C154.554633,67.9813275 157.570466,68.2922945 160.23471,69.6117068 C162.898954,70.9323068 164.743612,73.0990982 165.768212,76.1123186 C167.199991,80.3223697 166.841749,84.178218 164.692775,87.6812885 C162.544513,91.1834088 158.8761,93.8160566 153.687774,95.5811328 L136.357006,101.473589 L136.357006,101.473589 Z M132.972716,59.1136609 L136.870137,70.5769162 L141.570514,68.9788451 C143.82449,68.2124742 145.41781,67.0700447 146.348573,65.5510814 C147.278386,64.0328309 147.414745,62.3057645 146.75694,60.3691693 C145.549656,56.817874 142.350901,55.9241705 137.162575,57.6882965 L132.972716,59.1136609 L132.972716,59.1136609 Z M139.405386,78.030384 L143.730654,90.7519984 L149.597453,88.7567258 C152.091841,87.908634 153.845514,86.6669041 154.858948,85.0310609 C155.872382,83.3949803 156.029172,81.5491334 155.330269,79.493758 C154.666049,77.5383957 153.451163,76.2598438 151.687988,75.6566771 C149.92505,75.0542232 147.756358,75.1908205 145.18215,76.0657566 L139.405386,78.030384 L139.405386,78.030384 Z" id="形状" fill="#FFFFFF"></path>
        </g>
    </g>
</svg>