<?xml version="1.0" standalone="no"?><!DOCTYPE svg PUBLIC "-//W3C//DTD SVG 1.1//EN" "http://www.w3.org/Graphics/SVG/1.1/DTD/svg11.dtd"><svg t="1737533242435" class="icon" viewBox="0 0 1024 1024" version="1.1" xmlns="http://www.w3.org/2000/svg" p-id="15895" xmlns:xlink="http://www.w3.org/1999/xlink" width="200" height="200"><path d="M768 768H256a64.07 64.07 0 0 1-64-64V320a64.07 64.07 0 0 1 64-64h512a64.07 64.07 0 0 1 64 64v384a64.07 64.07 0 0 1-64 64zM96 320a32 32 0 0 0 32-32v-96h96a32 32 0 0 0 0-64h-96a64.07 64.07 0 0 0-64 64v96a32 32 0 0 0 32 32z m128 512h-96v-96a32 32 0 0 0-64 0v96a64.07 64.07 0 0 0 64 64h96a32 32 0 0 0 0-64z m672-704h-96a32 32 0 0 0 0 64h96v96a32 32 0 0 0 64 0v-96a64.07 64.07 0 0 0-64-64z m32 576a32 32 0 0 0-32 32v96h-96a32 32 0 0 0 0 64h96a64.07 64.07 0 0 0 64-64v-96a32 32 0 0 0-32-32z" fill="#000000" p-id="15896"></path></svg>