<?xml version="1.0" standalone="no"?><!DOCTYPE svg PUBLIC "-//W3C//DTD SVG 1.1//EN" "http://www.w3.org/Graphics/SVG/1.1/DTD/svg11.dtd"><svg t="1737533641025" class="icon" viewBox="0 0 1024 1024" version="1.1" xmlns="http://www.w3.org/2000/svg" p-id="16319" xmlns:xlink="http://www.w3.org/1999/xlink" width="200" height="200"><path d="M0 232.732444A232.732444 232.732444 0 0 1 232.732444 0h558.535112A232.732444 232.732444 0 0 1 1024 232.732444v558.535112A232.732444 232.732444 0 0 1 791.267556 1024H232.732444A232.732444 232.732444 0 0 1 0 791.267556V232.732444z m549.575111 13.084445c0 25.827556 20.935111 46.762667 46.734222 46.762667h116.821334c25.827556 0 46.734222 20.906667 46.734222 46.734222v116.821333a46.734222 46.734222 0 0 0 93.468444 0v-116.821333A140.202667 140.202667 0 0 0 713.130667 199.111111h-116.821334c-25.799111 0-46.734222 20.935111-46.734222 46.734222zM245.845333 549.632c-25.799111 0-46.734222 20.906667-46.734222 46.705778v116.821333A140.202667 140.202667 0 0 0 339.313778 853.333333h116.821333a46.734222 46.734222 0 0 0 0-93.468444h-116.821333a46.734222 46.734222 0 0 1-46.734222-46.734222v-116.821334c0-25.799111-20.935111-46.734222-46.734223-46.734222z" fill="#000000" p-id="16320"></path></svg>