<?xml version="1.0" standalone="no"?><!DOCTYPE svg PUBLIC "-//W3C//DTD SVG 1.1//EN" "http://www.w3.org/Graphics/SVG/1.1/DTD/svg11.dtd"><svg t="1737689535860" class="icon" viewBox="0 0 1024 1024" version="1.1" xmlns="http://www.w3.org/2000/svg" p-id="12789" xmlns:xlink="http://www.w3.org/1999/xlink" width="200" height="200"><path d="M723.2 501H289c-44.1 0-79.9-35.8-79.9-79.9 0-44.1 35.8-79.9 79.9-79.9h434.1c44.1 0 79.9 35.8 79.9 79.9 0 44.1-35.7 79.9-79.8 79.9z" fill="#FF4A4A" p-id="12790"></path><path d="M723.2 507H289c-47.3 0-85.9-38.5-85.9-85.9s38.5-85.9 85.9-85.9h434.1c47.3 0 85.9 38.5 85.9 85.9S770.5 507 723.2 507zM289 347.2c-40.7 0-73.9 33.1-73.9 73.9S248.3 495 289 495h434.1c40.7 0 73.9-33.1 73.9-73.9 0-40.7-33.1-73.9-73.9-73.9H289z" fill="#91000A" p-id="12791"></path><path d="M685.5 831.4H324.6c-41.1 0-74.5-33.3-74.5-74.5V535.4c0-19 15.4-34.5 34.5-34.5h440.9c19 0 34.5 15.4 34.5 34.5V757c0 41.1-33.3 74.4-74.5 74.4z" fill="#FF4A4A" p-id="12792"></path><path d="M685.5 837.4H324.6c-44.4 0-80.5-36.1-80.5-80.5V535.4c0-22.3 18.2-40.5 40.5-40.5h440.9c22.3 0 40.5 18.2 40.5 40.5V757c0 44.3-36.1 80.4-80.5 80.4zM284.6 506.9c-15.7 0-28.5 12.8-28.5 28.5V757c0 37.8 30.7 68.5 68.5 68.5h360.9c37.8 0 68.5-30.7 68.5-68.5V535.4c0-15.7-12.8-28.5-28.5-28.5H284.6z" fill="#91000A" p-id="12793"></path><path d="M801.5 415.6c0.1 1.8 0.2 3.7 0.2 5.5 0 22-8.9 42-23.4 56.5-14.4 14.4-34.4 23.4-56.5 23.4h-0.4c-0.9-0.1-1.8-0.1-2.7-0.1h-231v-20.3c105.7-0.5 229.5-1.1 242-1.1 30.2 0 64.5-23.4 71.8-63.9z" fill="#C62020" p-id="12794"></path><path d="M721.8 341.3c42.2 0 76.8 32.8 79.7 74.3-7.3 40.5-41.6 63.9-71.7 63.9-12.5 0-136.3 0.6-242 1.1V341.3h234zM487.8 524.4c110.7-4.4 232.6-7.7 262.1-8.5 5.4 6.8 8.7 15.4 8.7 24.8v210.8c0 3-0.2 6-0.5 8.9-7.4 17.3-36.6 44.9-74.3 44.9h-215V525.2c6.3-0.3 12.7-0.6 19-0.8z" fill="#FF2B3F" p-id="12795"></path><path d="M721.5 501c11.5 0.8 21.7 6.4 28.5 15-29.6 0.8-151.4 4-262.1 8.5V501h233.6z" fill="#C62020" p-id="12796"></path><path d="M443.9 501h43.9v23.4c-6.4 0.3-12.7 0.5-19 0.8v-7.8l-26 2v6.9c-47.5 2.1-89.9 4.4-117.7 6.8-18.1 1.6-40.4 15.8-40.4 34.2 0 56.1-1.9 148.8-1.9 166.1 0 33.2 11 72 69 72h91v6l26 3v-9h215c37.8 0 66.9-27.6 74.3-44.9-4.4 39.9-38.3 71-79.4 71h-350c-44.1 0-79.9-35.8-79.9-79.9V540.8c0-21.2 16.6-38.6 37.5-39.8h157.6z" fill="#D8000F" p-id="12797"></path><path d="M487.8 480.6v20.3h-43.9c0.1-4.9 0.2-11.9 0.3-20.1 13.9-0.1 28.6-0.1 43.6-0.2z" fill="#C62020" p-id="12798"></path><path d="M487.8 341.3v139.3c-15 0.1-29.7 0.1-43.6 0.2 0.3-23.1 0.6-55.6 0.6-77.4 0-37-27-17-50 15-21.2 29.6-21 34-37 28s-20-42-21-51-20-3-38 11c-17.3 13.5-29.8 6.4-29-17 0.6-17.1 10.9-36 18.8-48.1h199.2z" fill="#D8000F" p-id="12799"></path><path d="M468.9 805.4v9l-26-3v-6h26z" fill="#C62020" p-id="12800"></path><path d="M468.9 525.2v280.2h-26V526.3c8.5-0.4 17.2-0.8 26-1.1z" fill="#D8000F" p-id="12801"></path><path d="M468.9 517.4v7.8c-8.8 0.4-17.5 0.8-26 1.1v-6.9l26-2z" fill="#C62020" p-id="12802"></path><path d="M444.8 403.4c0 21.8-0.3 54.4-0.6 77.4-62 0.3-109.4 0.6-109.4 0.6-60 0-102-16.7-102-72s54.9-68.1 54.9-68.1h0.9c-7.9 12.2-18.2 31.1-18.8 48.1-0.8 23.4 11.7 30.5 29 17 18-14 37-20 38-11s5 45 21 51 15.8 1.5 37-28c23-32 50-52 50-15z" fill="#FF2B3F" p-id="12803"></path><path d="M444.2 480.8c-0.1 8.2-0.2 15.2-0.3 20.1H288.7c-0.8 0-1.6 0-2.4 0.1-43.5-0.8-78.4-36.2-78.4-79.8 0-22 8.9-42 23.4-56.5 14.5-14.4 34.4-23.4 56.5-23.4 0 0-54.9 12.8-54.9 68.1s42 72 102 72c0 0 47.3-0.3 109.3-0.6z" fill="#D8000F" p-id="12804"></path><path d="M442.8 526.3v279.1h-91c-58 0-69-38.8-69-72 0-17.3 1.9-110 1.9-166.1 0-18.4 22.3-32.6 40.4-34.2 27.9-2.4 70.2-4.7 117.7-6.8z" fill="#FF2B3F" p-id="12805"></path><path d="M721.8 501.5H286.3c-21.2-0.4-41-8.9-55.9-24-14.9-15.1-23.1-35.1-23.1-56.4 0-21.5 8.4-41.6 23.5-56.8 15.2-15.2 35.4-23.5 56.8-23.5h434.1c42.1 0 77.3 32.8 80.2 74.8 0.1 1.8 0.2 3.7 0.2 5.6 0 21.5-8.4 41.6-23.5 56.8-15.1 15.1-35.3 23.5-56.8 23.5zM287.7 341.8c-21.2 0-41.1 8.3-56.1 23.2-15 15-23.2 34.9-23.2 56.1 0 21 8.1 40.7 22.8 55.7 14.7 14.9 34.3 23.3 55.2 23.7h435.5c21.2 0 41.1-8.3 56.1-23.2 15-15 23.2-34.9 23.2-56.1 0-1.9-0.1-3.8-0.2-5.5-2.8-41.4-37.6-73.9-79.2-73.9H287.7z" fill="#91000A" p-id="12806"></path><path d="M678.8 831.9H328.7c-44.3 0-80.4-36-80.4-80.4V540.8c0-21.3 16.7-39 37.9-40.3 0.8 0 1.6-0.1 2.4-0.1h430.1c1 0 1.9 0 2.7 0.1 11.3 0.7 21.8 6.3 28.9 15.1 5.8 7.2 8.8 15.9 8.8 25.1v210.8c0 3-0.2 6-0.5 8.9-4.4 40.8-38.8 71.5-79.8 71.5zM288.7 501.4c-0.8 0-1.6 0-2.4 0.1-20.8 1.2-37 18.5-37 39.3v210.8c0 43.8 35.6 79.4 79.4 79.4h350.1c40.5 0 74.4-30.3 78.9-70.5 0.3-2.9 0.5-5.9 0.5-8.8V540.8c0-9-3-17.5-8.6-24.5-6.9-8.7-17.1-14-28.2-14.8-0.8-0.1-1.7-0.1-2.6-0.1H288.7z" fill="#91000A" p-id="12807"></path><path d="M487.3 335.4h1v190h-1z" fill="#91000A" p-id="12808"></path><path d="M541.8 334.4v15s33.6 14.2 57 41c21 24 36 63 48 63 16 0 30-37 31-54s15-12 30 0 28.6 14.1 31-3c3-21-37-69-37-69" fill="#C62020" p-id="12809"></path><path d="M724.6 507h-437c-46.5 0-84.4-37.9-84.4-84.4v-2.9c0-46.5 37.9-84.4 84.4-84.4h437c46.5 0 84.4 37.9 84.4 84.4v2.9c0 46.5-37.8 84.4-84.4 84.4z m-437-159.8c-39.9 0-72.4 32.5-72.4 72.4v2.9c0 39.9 32.5 72.4 72.4 72.4h437c39.9 0 72.4-32.5 72.4-72.4v-2.9c0-39.9-32.5-72.4-72.4-72.4h-437z" fill="#91000A" p-id="12810"></path><path d="M681.6 837.4h-353c-46.5 0-84.4-37.9-84.4-84.4V539.3c0-24.5 19.9-44.4 44.4-44.4h433c24.5 0 44.4 19.9 44.4 44.4V753c0 46.5-37.9 84.4-84.4 84.4z m-393-330.5c-17.9 0-32.4 14.5-32.4 32.4V753c0 39.9 32.5 72.4 72.4 72.4h353c39.9 0 72.4-32.5 72.4-72.4V539.3c0-17.9-14.5-32.4-32.4-32.4h-433z" fill="#91000A" p-id="12811"></path><path d="M763.5 265.3c0.9 42.1-29.2 86.3-77.8 86.3-92.8 0-194.2-4.6-194.2-4.6 2.2-4.6 4.7-10 7.5-15.9 29.2 0.9 99.9 3 124 3 29.6 0.1 95.7 23.7 140.5-68.8z" fill="#FFC603" p-id="12812"></path><path d="M674.8 190.4c61.5 0 87.9 36.6 88.7 75-44.8 92.5-110.9 68.8-140.5 68.8-24 0-94.8-2.1-124-3 23.8-50 71.9-140.8 175.8-140.8z m0.9 106.8c11.3 0.1 27.9-3.5 27.9-25.7 0-27.3-15.7-41.5-53.8-34.5-40.7 7.5-89.7 61.4-94.1 77.1-3.5 12.4 40.2-3.8 62.2-13.4 12.3 0.4 28 0.7 43.2 0.7 5.7 0 10.6-1.6 14.6-4.2z" fill="#FFEB00" p-id="12813"></path><path d="M703.6 271.4c0 22.2-16.6 25.8-27.9 25.7 18.3-11.9 17.9-44.7-17.7-44.7-28.5 0-48.6 24.1-58.2 40.1-2 3.3 0.3 7.4 4.1 7.6 3.7 0.1 8.5 0.3 14 0.5-22 9.6-65.7 25.7-62.2 13.4 4.5-15.7 53.5-69.6 94.1-77.1 38.2-7 53.8 7.2 53.8 34.5z" fill="#FFC603" p-id="12814"></path><path d="M685.7 357.7c-91.9 0-193.5-4.5-194.5-4.6l-9.1-0.4 3.9-8.2c1.2-2.4 2.4-5 3.7-7.9 1.2-2.5 2.5-5.2 3.8-8 13.8-29 31.6-62.4 58.9-90.7 34.3-35.5 75.4-53.5 122.3-53.5 29.9 0 54.6 8.6 71.3 24.8 14.6 14.2 23 34.1 23.4 56.1 0.5 25.2-9.4 50.8-26.6 68.4-15.4 15.7-35.2 24-57.1 24z m-184.9-16.2c26.9 1.1 109.2 4.2 184.9 4.2 18.7 0 35.5-7.1 48.6-20.5 15-15.3 23.7-37.6 23.2-59.7-0.7-33.4-22.8-69.1-82.7-69.1-43.4 0-81.7 16.8-113.6 49.8-26.2 27.1-43.4 59.5-56.7 87.6-1.4 2.7-2.6 5.2-3.7 7.7z" fill="#91000A" p-id="12815"></path><path d="M661.1 307.4c-12.7 0-27.3-0.2-43.4-0.7-5.5-0.2-10.3-0.3-14-0.5-3.9-0.2-7.4-2.3-9.3-5.8-1.9-3.4-1.8-7.5 0.2-10.9 4.5-7.6 12.3-18.5 23.4-27.6 12.5-10.2 25.9-15.4 40-15.4 17.7 0 30.6 7.8 34.5 21 3.7 12.6-2 27.2-13.5 34.7-5.2 3.4-11.4 5.2-17.9 5.2z m-55.3-13.2c3.4 0.1 7.6 0.3 12.3 0.4 15.9 0.5 30.4 0.7 43 0.7 4.2 0 8-1.1 11.3-3.2 7.1-4.6 10.8-13.8 8.6-21.3-2.4-8-10.5-12.4-23-12.4-9.1 0.1-32.3 3.6-52.2 35.8z" fill="#91000A" p-id="12816"></path><path d="M259.5 247.3c-11.6 46.4 19.8 104.4 75.5 104.4 92.8 0 194.2-4.6 194.2-4.6-2.2-4.6-4.7-10-7.5-15.9-29.2 0.9-99.9 3-124 3-29.8 0-100.8 22.8-138.2-86.9z" fill="#FFC500" p-id="12817"></path><path d="M259.5 247.3C297 357 367.9 334.2 397.7 334.2c24 0 94.8-2.1 124-3-23.8-50-71.9-140.8-175.8-140.8-51.8 0-78.7 25.9-86.4 56.9z m100 54.1c-23.1 0-34.1-26.5-20.8-40.5 2.2-10.6 10.6-24.5 40-23.1 41.3 2 81.8 60.5 86.3 76.2 3.5 12.4-40.2-3.8-62.2-13.4-12.4 0.4-28.1 0.8-43.3 0.8z" fill="#FFEB00" p-id="12818"></path><path d="M338.6 260.9c4.7-5 12.5-8.4 24-8.4 28.5 0 48.6 24.1 58.2 40.1 2 3.3-0.3 7.4-4.1 7.6-3.7 0.1-8.5 0.3-14 0.5 22 9.6 65.7 25.7 62.2 13.4-4.5-15.7-45-74.3-86.3-76.2-29.3-1.5-37.8 12.3-40 23z" fill="#FFC500" p-id="12819"></path><path d="M334.9 357.7c-25.2 0-47.8-11.2-63.6-31.5-17.6-22.6-24.4-53.4-17.7-80.4 4.4-17.9 14.5-32.9 29-43.5 16.3-11.9 37.6-18 63.2-18 46.8 0 88 18 122.3 53.5 27.4 28.3 45.2 61.8 59 90.7 1.3 2.8 2.6 5.5 3.8 8.1 1.3 2.8 2.5 5.4 3.7 7.8l3.9 8.2-9.1 0.4c-1 0.1-102.6 4.7-194.5 4.7z m-69.6-109c-5.9 23.5 0.1 50.4 15.5 70.1 13.5 17.3 32.8 26.8 54.2 26.8 75.7 0 158-3.1 184.9-4.2-1.1-2.4-2.4-5-3.6-7.7-13.4-28.1-30.6-60.5-56.8-87.6-32-33.1-70.2-49.8-113.6-49.8-43 0.1-72.3 19.2-80.6 52.4z" fill="#91000A" p-id="12820"></path><path d="M359.5 307.4c-13.3 0-24.8-7.5-29.9-19.5-4.8-11.1-2.9-23 4.7-31.1 4.4-4.7 12.9-10.3 28.3-10.3 14.1 0 27.5 5.2 40 15.4 11.1 9.1 18.8 20 23.4 27.6 2 3.4 2.1 7.4 0.2 10.9-1.9 3.5-5.3 5.6-9.3 5.8-3.7 0.1-8.5 0.3-14 0.5-16.1 0.4-30.7 0.7-43.4 0.7z m3.1-48.9c-8.8 0-15.6 2.2-19.6 6.5-5.2 5.5-4.7 12.9-2.4 18.1 2.6 5.9 8.9 12.3 18.9 12.3 12.6 0 27.1-0.2 43-0.7 4.7-0.2 8.9-0.3 12.3-0.4-19.9-32.3-43.1-35.8-52.2-35.8z m-24 2.4z" fill="#91000A" p-id="12821"></path><path d="M732.8 390.8c0.6 2.3-2.4 4-4.6 2.6-9.6-5.9-40.2-18.9-57.4-19.8-3.4-0.2-7.3 1.1-7.4 4.5-0.1 13.2-2.3 33.4-11.8 50-1.8 3.1-3.4 3.7-5.4 0.6-12.1-19.2-46-82.8-127.3-96.3-20.9-3.5-16.3-14.5-5.6-25.2 11.5 4.7 34 13.9 60.3 24.7 38.1 15.7 54.9 35.9 59.4 40.3 4.5 4.5 9 7.8 12.3-4.5 3.4-12.3 13.5-17.3 28-13.4 14.7 3.9 38.8 9.5 51.4 13.9 3.2 7 5.9 14.5 8.1 22.6z" fill="#FFC500" p-id="12822"></path><path d="M724.8 368.2c-12.6-4.3-36.7-10-51.4-13.9-14.5-3.9-24.7 1.1-28 13.4-3.4 12.3-7.8 9-12.3 4.5-4.5-4.5-21.3-24.7-59.4-40.3-26.3-10.8-48.9-20.1-60.3-24.7 12.1-12 32-23.7 32.2-23.7 7.4 0.4 136.9-6.9 179.2 84.7z" fill="#FFEB00" p-id="12823"></path><path d="M648.7 436.7c-2.1 0-5.1-0.9-7.6-4.8-0.8-1.3-1.7-2.8-2.8-4.5-14.1-23-47.2-77-120.4-89.2-4-0.7-16.1-2.7-19.1-12-2.1-6.7 1.2-14.3 10.2-23.3 6.6-6.6 15.3-12.9 21.4-17.1 12.3-8.4 13.5-8.4 15-8.4H548.1c30.1-0.3 57.9 3.2 82.8 10.3 48.4 13.8 81.8 40 99.2 77.9 3.4 7.4 6.2 15.3 8.4 23.6 0.8 3.3-0.4 6.8-3.2 8.9-3 2.2-7.1 2.4-10.3 0.4-8.7-5.4-38.4-18.1-54.6-18.9h-1.1c-0.2 12-2.3 33.4-12.6 51.4-2.1 3.7-4.8 5.6-7.9 5.7h-0.1z m2.8-10.9zM547.1 289.5c-4.6 2.7-20 12.4-29.5 21.9-8.1 8.1-7.2 11.1-7.2 11.1 0.2 0.7 2.3 2.6 9.6 3.9 33.7 5.6 63.5 20.3 88.5 43.6 20.4 19 32.7 39 40.1 51 7.5-15.6 8.8-33.3 8.9-43 0-2.7 1.1-5.2 3.1-7.1 2.5-2.4 6.3-3.6 10.6-3.4 15.9 0.8 40.5 10.6 53.7 17.1-1.6-4.8-3.4-9.5-5.5-14-15.9-34.6-46.8-58.6-91.6-71.4-23.7-6.8-50.4-10.1-79.3-9.8-0.6 0.1-1.1 0.1-1.4 0.1z m184.2 98.8z m-218-81.1z" fill="#91000A" p-id="12824"></path><path d="M282.4 390.8c-0.6 2.3 2.4 4 4.6 2.6 9.6-5.9 40.2-18.9 57.5-19.8 3.4-0.2 7.3 1.1 7.3 4.5 0.1 13.2 2.3 33.4 11.8 50 1.8 3.1 3.4 3.7 5.4 0.6 12.1-19.2 46-82.8 127.2-96.3 20.9-3.5 16.3-14.5 5.6-25.2-11.5 4.7-34 13.9-60.3 24.7-38.1 15.7-54.9 35.9-59.4 40.3-4.5 4.5-9 7.8-12.3-4.5-3.4-12.3-13.5-17.3-28-13.4-14.7 3.9-38.8 9.5-51.4 13.9-3.2 7-5.9 14.5-8 22.6z" fill="#FFC500" p-id="12825"></path><path d="M290.4 368.2c12.6-4.3 36.7-10 51.4-13.9 14.5-3.9 24.7 1.1 28 13.4 3.4 12.3 7.8 9 12.3 4.5 4.5-4.5 21.3-24.7 59.4-40.3 26.3-10.8 48.9-20.1 60.3-24.7-12.1-12-32-23.7-32.2-23.7-7.4 0.4-136.9-6.9-179.2 84.7z" fill="#FFEB00" p-id="12826"></path><path d="M366.4 436.7h-0.2c-3.1-0.1-5.8-2-7.9-5.7-10.3-18-12.3-39.3-12.5-51.3-0.3 0-0.6-0.1-1 0-16.2 0.8-45.9 13.6-54.6 18.9-3.2 2-7.3 1.8-10.3-0.4-2.8-2.1-4.1-5.5-3.2-8.8 2.1-8.2 4.9-16.1 8.4-23.6 17.5-37.9 50.9-64.1 99.2-77.9 24.8-7.1 52.7-10.5 82.7-10.3H469.7c1.5 0 2.7 0 15 8.4 6.1 4.2 14.8 10.5 21.4 17.1 9 9 12.3 16.6 10.2 23.3-3 9.4-15.1 11.4-19.1 12-73.2 12.2-106.3 66.1-120.4 89.2-1 1.7-1.9 3.1-2.7 4.4-2.6 3.9-5.6 4.7-7.7 4.7z m-21.3-69.1c3.8 0 7.3 1.2 9.6 3.4 2 1.9 3.1 4.4 3.1 7.1 0.1 9.6 1.4 27.4 8.9 43 7.4-12 19.6-32 40-51 25-23.3 54.8-38 88.6-43.6 7.3-1.2 9.4-3.2 9.6-3.9 0 0 0.9-3.1-7.2-11.1-9.5-9.5-24.9-19.2-29.5-21.9H467c-28.9-0.3-55.6 3-79.3 9.8-44.9 12.8-75.7 36.8-91.6 71.4-2.1 4.5-3.9 9.2-5.4 14 13.2-6.6 37.8-16.3 53.7-17.1 0-0.1 0.3-0.1 0.7-0.1z m-61.3 20.7z" fill="#91000A" p-id="12827"></path><path d="M481.8 348.3h-1.1c-10.7 0-19.4-8.7-19.4-19.4v-40c0-10.7 8.7-19.4 19.4-19.4h6.5c-3 5.5-7 15.7-7 29.9 0 22.4-0.9 31.4 11.9 31.4h38.5c4.5 0 11.9-1.2 17.1-4.2v2.3c0 10.7-8.7 19.4-19.4 19.4h-46.5z" fill="#FFC500" p-id="12828"></path><path d="M547.8 288.9v37.7c-5.2 3-12.7 4.2-17.1 4.2h-38.5c-12.8 0-11.9-9-11.9-31.4 0-14.2 4-24.3 7-29.9h41.2c10.6 0.1 19.3 8.7 19.3 19.4z" fill="#FFEB00" p-id="12829"></path><path d="M546.9 810.6v21.3h-84.6V351.7h19.6v441c0 13.4 0 17.9 12.8 17.9h52.2z" fill="#FFC500" p-id="12830"></path><path d="M546.9 351.7v458.9h-52.2c-12.8 0-12.8-4.5-12.8-17.9v-441h65z" fill="#FFEB00" p-id="12831"></path><path d="M552.9 837.8h-96.6V345.7h96.6v492.1z m-84.6-12h72.6V357.7h-72.6v468.1z" fill="#91000A" p-id="12832"></path><path d="M528.4 354.3h-47.7c-14 0-25.4-11.4-25.4-25.4v-40c0-14 11.4-25.4 25.4-25.4h47.7c14 0 25.4 11.4 25.4 25.4v40c0 14-11.4 25.4-25.4 25.4z m-47.7-78.7c-7.4 0-13.4 6-13.4 13.4v40c0 7.4 6 13.4 13.4 13.4h47.7c7.4 0 13.4-6 13.4-13.4v-40c0-7.4-6-13.4-13.4-13.4h-47.7z" fill="#91000A" p-id="12833"></path></svg>