<?xml version="1.0" standalone="no"?><!DOCTYPE svg PUBLIC "-//W3C//DTD SVG 1.1//EN" "http://www.w3.org/Graphics/SVG/1.1/DTD/svg11.dtd"><svg t="1737688987908" class="icon" viewBox="0 0 1024 1024" version="1.1" xmlns="http://www.w3.org/2000/svg" p-id="6479" xmlns:xlink="http://www.w3.org/1999/xlink" width="200" height="200"><path d="M807.2 437.1V201.2c0-29.4-23.8-53.2-53.2-53.2H276.5c-29.4 0-53.2 23.8-53.2 53.2v235.9c0 6.1-4.3 11.5-10.3 12.7l-30.8 6.4c-21.7 4.5-37.2 23.6-37.2 45.8v287.7c0 44.2 35.9 80.1 80.1 80.1h580.4c44.2 0 80.1-35.9 80.1-80.1V502c0-22.2-15.6-41.2-37.2-45.8l-30.8-6.4c-6.1-1.3-10.4-6.5-10.4-12.7z" fill="#FF556E" p-id="6480"></path><path d="M276.5 148c-29.4 0-53.2 23.8-53.2 53.2v13.1c31-26.8 65.7-49.3 103.5-66.3h-50.3zM807.2 244v-42.9c0-29.4-23.8-53.2-53.2-53.2h-81.2c51 23.1 96.6 55.9 134.4 96.1zM145.1 760.2v29.5c0 44.2 35.9 80.1 80.1 80.1h21.9c-40.3-30.2-74.8-67.4-102-109.6zM885.6 789.7v-86.9c-29.4 66.4-75.4 123.8-132.8 166.9h52.7c44.2 0 80.1-35.9 80.1-80z" fill="#FF556E" p-id="6481"></path><path d="M145.1 649.2v111c27.2 42.3 61.8 79.5 102 109.6h168.2C292.2 847 191 762.3 145.1 649.2zM885.6 702.8V502c0-22.2-15.6-41.2-37.2-45.8l-8.2-1.7c3 19 4.7 38.4 4.7 58.1 0 177.9-127.8 325.8-296.7 357h204.6c57.3-43 103.3-100.4 132.8-166.8zM481.6 149.6c142.7 0 266.1 82.3 325.5 202.1V244c-37.7-40.2-83.3-73-134.2-95.9h-346c-37.8 17-72.6 39.5-103.4 66.3v43.1c65.7-66.6 157.1-107.9 258.1-107.9z" fill="#FF5F71" p-id="6482"></path><path d="M844.7 512.7c0-19.8-1.6-39.3-4.7-58.1l-22.6-4.7c-6-1.3-10.3-6.6-10.3-12.7v-85.4C747.7 232 624.3 149.7 481.6 149.7c-101 0-192.4 41.2-258.3 107.8v47.7c55.8-71.1 142.5-116.8 239.9-116.8 168.3 0 304.6 136.4 304.6 304.6S631.6 797.5 463.3 797.5 158.7 661.1 158.7 492.9c0-8.4 0.4-16.6 1-24.9-9 8.6-14.6 20.7-14.6 33.9v147.3C191 762.2 292.3 847 415.2 869.7h133c168.7-31.2 296.5-179.1 296.5-357z" fill="#FF6974" p-id="6483"></path><path d="M463.3 797.5c168.3 0 304.6-136.4 304.6-304.6S631.6 188.2 463.3 188.2c-97.4 0-184.1 45.7-239.9 116.8v60.4c39.9-82 124.1-138.7 221.5-138.7 136 0 246.3 110.2 246.3 246.3S580.9 719.3 445 719.3 198.8 609.1 198.8 473c0-6.9 0.3-13.7 0.9-20.4l-17.3 3.6c-8.7 1.8-16.4 6-22.6 11.8-0.7 8.2-1 16.5-1 24.9-0.1 168.2 136.3 304.6 304.5 304.6z" fill="#FF7377" p-id="6484"></path><path d="M445 719.3c136 0 246.3-110.2 246.3-246.3S580.9 226.8 445 226.8c-97.4 0-181.7 56.6-221.5 138.7v71.6c0 6.1-4.3 11.5-10.3 12.7l-13.5 2.8c-0.6 6.7-0.9 13.5-0.9 20.4 0 136.1 110.2 246.3 246.2 246.3z m-18.2-453.8c103.7 0 187.8 84.1 187.8 187.8s-84.1 187.8-187.8 187.8S239 557 239 453.3s84.1-187.8 187.8-187.8z" fill="#FF7E7A" p-id="6485"></path><path d="M426.8 641c103.7 0 187.8-84.1 187.8-187.8s-84.1-187.8-187.8-187.8S239 349.5 239 453.2 323.1 641 426.8 641z m-18.4-337c71.4 0 129.4 57.9 129.4 129.4s-57.9 129.5-129.4 129.5S279 504.9 279 433.5 337 304 408.4 304z" fill="#FF887D" p-id="6486"></path><path d="M316.89911 525.022286a129.4 129.4 0 1 0 182.996041-183.002429 129.4 129.4 0 1 0-182.996041 183.002429Z" fill="#FF9280" p-id="6487"></path><path d="M805.5 878.8H225.1c-49.1 0-89.1-40-89.1-89.1V502c0-26.3 18.7-49.3 44.4-54.6l30.8-6.4c1.8-0.4 3.1-2 3.1-3.9V201.2c0-34.3 27.9-62.2 62.2-62.2H754c34.3 0 62.2 27.9 62.2 62.2v235.9c0 1.9 1.3 3.5 3.3 3.9l30.8 6.4c25.7 5.5 44.4 28.4 44.4 54.6v287.7c-0.1 49.1-40.1 89.1-89.2 89.1zM276.5 157c-24.4 0-44.2 19.8-44.2 44.2v235.9c0 10.4-7.4 19.5-17.5 21.5L184 465c-17.4 3.6-30 19.2-30 37v287.7c0 39.2 31.9 71.1 71.1 71.1h580.4c39.2 0 71.1-31.9 71.1-71.1V502c0-17.7-12.6-33.3-30.1-37l-30.8-6.4c-10.4-2.2-17.6-11-17.6-21.5V201.2c0-24.4-19.8-44.2-44.2-44.2H276.5z" fill="#EF4868" p-id="6488"></path><path d="M764.5 529.3L545.1 634.7c-18.9 9-40.7 9-59.6 0L266.1 529.3c-12.2-5.8-26.4 3-26.4 16.6v198.8c0 20.3 16.4 36.7 36.7 36.7h477.7c20.3 0 36.7-16.4 36.7-36.7V545.9c0.1-13.6-14-22.5-26.3-16.6zM506.9 435.8c2.5 1.9 5.3 2.7 8.4 2.7 2.9 0 5.8-1 8.4-2.7 2.5-1.9 60.8-41.7 85.1-78.4 8.4-12.6 18.8-28.4 18.8-50.8 0-37.6-29.1-68.3-64.6-68.3-19.7 0-35.4 9.6-47.4 25.4-12.1-15.7-27.7-25.4-47.4-25.4-35.7 0-64.8 30.6-64.8 68.3 0 22.5 10.4 38.3 18.8 50.8 23.8 36.8 82.1 76.5 84.7 78.4z" fill="#FFC7C7" p-id="6489"></path><path d="M340.1 188.2h-9c-34.2 0-62 27.8-62 62v65.6c0 9.9 8.1 18 18 18s18-8.1 18-18v-65.6c0-14.4 11.7-26 26-26h9c9.9 0 18-8.1 18-18s-8.1-18-18-18zM287.1 357.9c-9.9 0-18 8.1-18 18v12c0 9.9 8.1 18 18 18s18-8.1 18-18v-12c0-10-8.1-18-18-18z" fill="#FFFFFF" p-id="6490"></path></svg>