<?xml version="1.0" standalone="no"?><!DOCTYPE svg PUBLIC "-//W3C//DTD SVG 1.1//EN" "http://www.w3.org/Graphics/SVG/1.1/DTD/svg11.dtd"><svg t="1737448655685" class="icon" viewBox="0 0 1024 1024" version="1.1" xmlns="http://www.w3.org/2000/svg" p-id="12314" xmlns:xlink="http://www.w3.org/1999/xlink" width="200" height="200"><path d="M458.644827 863.81152a53.362084 53.362084 0 1 1 53.310972 53.413198A53.362084 53.362084 0 0 1 458.644827 863.81152zM292.169436 106.621943h439.572726a46.819607 46.819607 0 0 1 46.921833 47.024059v524.676051a46.819607 46.819607 0 0 1-46.921833 46.921832h-439.572726a46.819607 46.819607 0 0 1-46.921833-46.921832V153.594889a46.819607 46.819607 0 0 1 46.921833-46.921833zM138.472321 938.64111a85.307777 85.307777 0 0 0 85.35889 85.307777h576.300289a85.307777 85.307777 0 0 0 85.35889-85.307777V85.307777A85.35889 85.35889 0 0 0 800.1315 0H223.831211A85.35889 85.35889 0 0 0 138.472321 85.307777v853.333333z" fill="#000000" p-id="12315"></path></svg>