<?xml version="1.0" standalone="no"?><!DOCTYPE svg PUBLIC "-//W3C//DTD SVG 1.1//EN" "http://www.w3.org/Graphics/SVG/1.1/DTD/svg11.dtd"><svg t="1737448260406" class="icon" viewBox="0 0 1024 1024" version="1.1" xmlns="http://www.w3.org/2000/svg" p-id="10014" xmlns:xlink="http://www.w3.org/1999/xlink" width="200" height="200"><path d="M760.896 458.24H379.2a235.264 235.264 0 0 1-4.864-48c0-106.368 68.736-192.576 153.6-192.576 72.768 0 133.696 63.424 149.504 148.608h109.184c-18.88-148.544-127.488-262.4-258.752-262.4-144.512 0-261.632 138.112-261.632 308.48 0 15.616 1.024 30.976 2.944 46.016h-6.08c-57.856 0-104.768 38.208-104.768 85.312v291.392c0 47.104 46.912 85.248 104.768 85.248h497.792c57.856 0 104.768-38.208 104.768-85.248V543.552c0-47.104-46.912-85.312-104.768-85.312z" fill="#040000" p-id="10015"></path></svg>