<?xml version="1.0" encoding="UTF-8"?>
<svg width="20px" height="20px" viewBox="0 0 20 20" version="1.1" xmlns="http://www.w3.org/2000/svg" xmlns:xlink="http://www.w3.org/1999/xlink">
    <title>编组</title>
    <g id="页面-1" stroke="none" stroke-width="1" fill="none" fill-rule="evenodd" stroke-linejoin="round">
        <g id="编组" transform="translate(1, 1)" stroke-width="2">
            <path d="M16.65,0 L1.35,0 C0.604415,0 0,0.604415 0,1.35 L0,16.65 C0,17.3956 0.604415,18 1.35,18 L16.65,18 C17.3956,18 18,17.3956 18,16.65 L18,1.35 C18,0.604415 17.3956,0 16.65,0 Z" id="路径" stroke="#FFFFFF" fill="#FFFFFF" fill-rule="nonzero"></path>
            <line x1="15" y1="10.5" x2="11.5" y2="12" id="路径" stroke="#000000" stroke-linecap="round"></line>
            <line x1="7.5" y1="13.5" x2="4" y2="15" id="路径" stroke="#000000" stroke-linecap="round"></line>
            <path d="M5,11.5 C6,10.0523 6.5,9.0523 6.5,8.5 C6.5,7.67155 5.82845,7 5,7 C4.17155,7 3.5,7.67155 3.5,8.5 C3.5,9.0523 4,10.0523 5,11.5 Z" id="路径" stroke="#000000" fill="#000000" fill-rule="nonzero"></path>
            <path d="M13,8 C14,6.5523 14.5,5.5523 14.5,5 C14.5,4.17155 13.82845,3.5 13,3.5 C12.17155,3.5 11.5,4.17155 11.5,5 C11.5,5.5523 12,6.5523 13,8 Z" id="路径" stroke="#000000" fill="#000000" fill-rule="nonzero"></path>
        </g>
    </g>
</svg>