<?xml version="1.0" standalone="no"?><!DOCTYPE svg PUBLIC "-//W3C//DTD SVG 1.1//EN" "http://www.w3.org/Graphics/SVG/1.1/DTD/svg11.dtd"><svg t="1737613343228" class="icon" viewBox="0 0 1024 1024" version="1.1" xmlns="http://www.w3.org/2000/svg" p-id="39383" xmlns:xlink="http://www.w3.org/1999/xlink" width="200" height="200"><path d="M715.733333 289.066667c-21.333333 0-38.4-17.066667-38.4-37.333334v-100.266666c0-20.266667 17.066667-37.333333 38.4-37.333334s38.4 17.066667 38.4 37.333334v100.266666c0 20.266667-17.066667 37.333333-38.4 37.333334z m-411.733333 0c-21.333333 0-38.4-17.066667-38.4-37.333334v-100.266666c0-20.266667 17.066667-37.333333 38.4-37.333334s38.4 17.066667 38.4 37.333334v100.266666c0 20.266667-17.066667 37.333333-38.4 37.333334zM266.666667 633.6h160c-29.866667-13.866667-56.533333-29.866667-80-48-22.4 17.066667-49.066667 33.066667-80 48z" p-id="39384" fill="#000000"></path><path d="M883.2 213.333333h-76.8v37.333334c0 48-40.533333 87.466667-89.6 87.466666-50.133333 0-89.6-39.466667-89.6-87.466666V213.333333H393.6v37.333334c0 48-40.533333 87.466667-89.6 87.466666-50.133333 0-89.6-39.466667-89.6-87.466666V213.333333h-76.8c-21.333333 0-38.4 17.066667-38.4 37.333334v626.133333c0 20.266667 17.066667 37.333333 38.4 37.333333h745.6c21.333333 0 38.4-17.066667 38.4-37.333333V250.666667c0-20.266667-17.066667-37.333333-38.4-37.333334zM379.733333 473.6l30.933334 6.4c-2.133333 7.466667-4.266667 13.866667-6.4 21.333333h96v28.8h-48c6.4 11.733333 11.733333 21.333333 16 30.933334L437.333333 572.8c-5.333333-14.933333-11.733333-28.8-19.2-42.666667h-26.666666c-5.333333 10.666667-11.733333 21.333333-18.133334 30.933334L345.6 544c16-21.333333 27.733333-44.8 34.133333-70.4z m-142.933333 0l30.933333 6.4c-2.133333 7.466667-4.266667 13.866667-7.466666 21.333333h85.333333v28.8h-42.666667c4.266667 10.666667 8.533333 20.266667 11.733334 28.8l-29.866667 10.666667c-4.266667-13.866667-8.533333-26.666667-13.866667-39.466667h-22.4c-8.533333 16-18.133333 32-28.8 45.866667L192 557.866667c21.333333-25.6 36.266667-54.4 44.8-84.266667z m256 306.133333H202.666667v-29.866666h187.733333c12.8-22.4 22.4-48 32-78.933334l32 8.533334c-8.533333 25.6-18.133333 49.066667-29.866667 70.4h67.2v29.866666z m-254.933333-96l29.866666-9.6c9.6 18.133333 18.133333 38.4 25.6 62.933334l-29.866666 7.466666c-6.4-21.333333-14.933333-41.6-25.6-60.8z m77.866666-6.4l29.866667-9.6c7.466667 19.2 14.933333 41.6 21.333333 66.133334l-28.8 7.466666c-5.333333-22.4-12.8-43.733333-22.4-64z m171.733334-19.2c-18.133333-6.4-35.2-12.8-51.2-20.266666V661.333333H257.066667v-24.533333c-16 6.4-33.066667 13.866667-51.2 20.266667L190.933333 629.333333c58.666667-19.2 106.666667-42.666667 146.133334-70.4h20.266666c42.666667 29.866667 90.666667 54.4 146.133334 71.466667l-16 27.733333z m224 99.2c-53.333333 10.666667-109.866667 20.266667-170.666667 27.733334l-7.466667-30.933334c26.666667-3.2 52.266667-6.4 77.866667-9.6v-56.533333h-62.933333v-30.933333h62.933333v-36.266667h33.066667v36.266667h57.6v30.933333h-57.6v51.2c22.4-4.266667 45.866667-8.533333 67.2-13.866667v32zM693.333333 624c-4.266667-8.533333-9.6-17.066667-13.866666-25.6-42.666667 7.466667-89.6 13.866667-139.733334 19.2l-6.4-28.8c5.333333-1.066667 9.6-2.133333 12.8-3.2 10.666667-9.6 25.6-32 43.733334-68.266667h-51.2v-30.933333h171.733333v30.933333h-85.333333c-13.866667 29.866667-27.733333 52.266667-39.466667 68.266667 27.733333-3.2 54.4-6.4 80-10.666667-6.4-10.666667-13.866667-21.333333-21.333333-30.933333l24.533333-16c22.4 29.866667 39.466667 55.466667 52.266667 77.866667L693.333333 624z m40.533334-117.333333h30.933333v209.066666h-30.933333V506.666667z m99.2 245.333333c0 23.466667-11.733333 35.2-34.133334 35.2h-50.133333l-7.466667-30.933333c16 1.066667 32 2.133333 46.933334 2.133333 8.533333 0 12.8-4.266667 12.8-12.8V475.733333h33.066666v276.266667z" p-id="39385" fill="#000000"></path></svg>