<?xml version="1.0" encoding="UTF-8"?>
<svg width="160px" height="160px" viewBox="0 0 160 160" version="1.1" xmlns="http://www.w3.org/2000/svg" xmlns:xlink="http://www.w3.org/1999/xlink">
    <title>编组</title>
    <g id="页面-1" stroke="none" stroke-width="1" fill="none" fill-rule="evenodd">
        <g id="编组" fill-rule="nonzero">
            <path d="M60,0 L100,0 C140,0 160,20 160,60 L160,100 C160,140 140,160 100,160 L60,160 C20,160 0,140 0,100 L0,60 C0,20 20,0 60,0 Z" id="路径" fill-opacity="0.2" fill="#FFA26C"></path>
            <path d="M52.878,38.96 L52.88,44.16 C52.879823,47.3371152 55.3563569,49.9636092 58.528,50.15 L58.88,50.16 L60.32,50.16 C63.4971152,50.160177 66.1236092,47.6836431 66.31,44.512 L66.32,44.16 L66.32,38.96 L97.68,38.96 L97.68,44.16 C97.679823,47.3371152 100.156357,49.9636092 103.328,50.15 L103.68,50.16 L105.12,50.16 C108.297115,50.160177 110.923609,47.6836431 111.11,44.512 L111.12,44.16 L111.118,38.96 L122,38.96 C130.836556,38.96 138,46.123444 138,54.96 L138,112.56 C138,121.396556 130.836556,128.56 122,128.56 L42,128.56 C33.163444,128.56 26,121.396556 26,112.56 L26,54.96 C26,46.123444 33.163444,38.96 42,38.96 L52.878,38.96 L52.878,38.96 Z M59.6,30 C62.0742357,30 64.08,32.0057643 64.08,34.48 L64.08,43.44 C64.08,45.9142357 62.0742357,47.92 59.6,47.92 C57.1257643,47.92 55.12,45.9142357 55.12,43.44 L55.12,34.48 C55.12,32.0057643 57.1257643,30 59.6,30 L59.6,30 Z M104.4,30 C106.874236,30 108.88,32.0057643 108.88,34.48 L108.88,43.44 C108.88,45.9142357 106.874236,47.92 104.4,47.92 C101.925764,47.92 99.92,45.9142357 99.92,43.44 L99.92,34.48 C99.92,33.2918301 100.391999,32.1523246 101.232162,31.3121616 C102.072325,30.4719986 103.21183,30 104.4,30 L104.4,30 Z" id="形状" fill="#FFA26C"></path>
            <path d="M59.424,77.608 C61.222,75.288 62.846,72.678 64.296,69.894 L68.124,69.894 C69.052,72.04 69.864,74.244 70.56,76.564 L75.548,74.766 C74.9755359,73.1089252 74.3173143,71.4827307 73.576,69.894 L80.826,69.894 L80.826,65.022 L66.384,65.022 C66.79,63.862 67.196,62.702 67.602,61.426 L62.266,60.266 C60.758,65.37 58.264,70.126 54.668,74.592 L59.424,77.608 L59.424,77.608 Z M96.428,77.144 L101.474,75.23 C100.690159,73.4005141 99.799284,71.6187646 98.806,69.894 L106.984,69.894 L106.984,65.022 L90.686,65.022 C91.092,63.862 91.498,62.702 91.846,61.426 L86.626,60.266 C85.466,64.558 83.494,68.502 80.826,72.214 L85.466,75.172 C86.6451357,73.4964481 87.6922877,71.7318031 88.598,69.894 L93.18,69.894 C94.4254758,72.2343851 95.5106372,74.6566203 96.428,77.144 L96.428,77.144 Z M96.254,92.166 L96.254,88.106 C99.0755149,89.3907349 101.95982,90.5328424 104.896,91.528 L107.564,86.772 C98.168,83.814 89.932,79.754 82.74,74.65 L79.26,74.65 C72.648,79.406 64.412,83.408 54.436,86.656 L57.104,91.47 C60.0290662,90.3941186 62.9297867,89.2531686 65.804,88.048 L65.804,92.166 L96.254,92.166 Z M94.63,87.352 L67.312,87.352 C72.59,84.858 77.172,82.132 81,79.116 C84.944,82.19 89.526,84.916 94.63,87.352 L94.63,87.352 Z M79.492,105.622 L84.422,104.404 C83.378,100.17 82.218,96.4 80.884,93.152 L75.78,94.776 C77.2935752,98.2908174 78.5345685,101.916845 79.492,105.622 L79.492,105.622 Z M105.708,112.292 L105.708,107.188 L94.224,107.188 C96.196,103.65 97.878,99.648 99.27,95.24 L93.818,93.79 C92.194,98.952 90.396,103.418 88.308,107.188 L56.408,107.188 L56.408,112.292 L105.708,112.292 L105.708,112.292 Z M66.906,106.202 L71.894,104.926 C70.56,100.924 69.11,97.386 67.486,94.312 L62.44,95.936 C64.296,99.184 65.746,102.606 66.906,106.202 L66.906,106.202 Z" id="形状" fill-opacity="0.6" fill="#FFFFFF"></path>
        </g>
    </g>
</svg>