<?xml version="1.0" standalone="no"?><!DOCTYPE svg PUBLIC "-//W3C//DTD SVG 1.1//EN" "http://www.w3.org/Graphics/SVG/1.1/DTD/svg11.dtd"><svg t="1740121182450" class="icon" viewBox="0 0 1024 1024" version="1.1" xmlns="http://www.w3.org/2000/svg" p-id="7522" xmlns:xlink="http://www.w3.org/1999/xlink" width="200" height="200"><path d="M512 85.333333c235.648 0 426.666667 191.018667 426.666667 426.666667s-191.018667 426.666667-426.666667 426.666667S85.333333 747.648 85.333333 512 276.352 85.333333 512 85.333333z m91.434667 213.333334c-32.64-0.085333-64 12.693333-87.104 35.541333a120.704 120.704 0 0 0-35.989334 86.144v184.384c0 33.770667-28.053333 61.504-62.165333 61.504-34.154667 0-63.402667-27.733333-63.402667-62.72 0-34.944 28.053333-61.44 62.208-61.44 8.106667 0.064 15.893333-3.093333 21.632-8.746667 5.717333-5.674667 8.896-13.397333 8.832-21.397333a29.696 29.696 0 0 0-8.853333-21.376 30.378667 30.378667 0 0 0-21.653333-8.746667c-64.341333 2.218667-115.989333 53.312-118.186667 116.949334A122.069333 122.069333 0 0 0 416.938667 725.333333a123.477333 123.477333 0 0 0 87.189333-35.562666 120.704 120.704 0 0 0 35.946667-86.208V419.2c0-33.770667 28.053333-61.461333 62.165333-61.461333 34.133333 0 62.144 27.733333 62.144 61.461333 0 33.770667-28.053333 61.482667-60.928 61.482667h-1.216a30.378667 30.378667 0 0 0-21.632 8.746666 29.696 29.696 0 0 0-8.853333 21.354667c-0.085333 8.021333 3.114667 15.744 8.832 21.418667 5.76 5.674667 13.546667 8.810667 21.653333 8.746666a123.477333 123.477333 0 0 0 87.146667-35.562666A120.704 120.704 0 0 0 725.333333 419.2a118.677333 118.677333 0 0 0-35.349333-85.568 121.365333 121.365333 0 0 0-80.490667-34.858667L603.434667 298.666667z" fill="#333333" p-id="7523"></path></svg>